<svg xmlns="http://www.w3.org/2000/svg" xmlns:xlink="http://www.w3.org/1999/xlink" viewBox="0 0 666.86 302.86">
    <defs>
        <style>
            .cls-1 {
                isolation: isolate;
            }

            .cls-2 {
                font-size: 300px;
                fill: #e2ddf9;
                font-family: JosefinSans-Bold, Josefin Sans;
                font-weight: 700;
            }

            .cls-3 {
                fill: #e2ddf9;
            }

            .cls-4 {
                mask: url(#mask);
            }

            .cls-5 {
                fill: #bdaed4;
            }

            .cls-6 {
                opacity: 0.43;
                mix-blend-mode: overlay;
            }

            .cls-7 {
                fill: #a498b5;
            }

            .cls-8 {
                filter: url(#luminosity-noclip);
            }
        </style>
        <filter id="luminosity-noclip" x="203.38" y="-7996.13" width="155.34" height="32766"
            filterUnits="userSpaceOnUse" color-interpolation-filters="sRGB">
            <feFlood flood-color="#fff" result="bg" />
            <feBlend in="SourceGraphic" in2="bg" />
        </filter>
        <mask id="mask" x="203.38" y="-7996.13" width="155.34" height="32766" maskUnits="userSpaceOnUse">
            <g class="cls-8" />
        </mask>
    </defs>
    <g class="cls-1">
        <g id="Layer_1" data-name="Layer 1">
            <text class="cls-2" transform="translate(28.22 249.63) scale(0.99 1)">cl<tspan class="cls-3" x="176.69"
                    y="0">o</tspan>
                <tspan x="319.19" y="0">ve</tspan>
            </text>
            <g class="cls-4">
                <g id="clove">
                    <path class="cls-5"
                        d="M281.57,149.46c1.35,14.57-5.53,25.8-19.56,16-9.25-6.44-22.83-8.55-29.75-18-7.85-18.66,41.36-42.14,47-17.62C280.59,135.68,281.12,144.55,281.57,149.46Zm-23-2.57c4.37.58,8.11-4.61,4.36-7.44C256,135,248.18,145.72,258.55,146.89Z" />
                    <path class="cls-5"
                        d="M277.18,226.1a10.39,10.39,0,0,1,0-2.84c1-7,7.24-12.95,13.11-15.75,8.8-4.2,23.24,22.64,29.88,32a10.08,10.08,0,0,1,1.91,5.49c.4,10-14.18,14.83-22.85,15.1-6.79.21-16.65.08-18.09-8.51C280,243.05,278.35,234.59,277.18,226.1Zm19.24,6.07-.59,0c-6.66-.28-5.73,8.84-1,11.27C304,248,305.84,232,296.42,232.17Z" />
                    <path class="cls-5"
                        d="M358.68,181.18c1,33.81-18.68,19.45-40.9,14.59-12.56-2.74-3.65-27,5.93-29.18C343.19,159.86,357.86,154.1,358.68,181.18Zm-21.92,4.63c8.62-.33,2.68-12.08-3.42-8.19C328.85,180,332.94,186,336.76,185.81Z" />
                    <path class="cls-5"
                        d="M215.3,224.21c1.58-10.16,12.31-15.11,20.95-18.86l0,0c7.13-4.13,15.2,0,21.88,3.14l.06,0c8.61,5,0,13.93-4.83,19.38-13.63,15.36-31.65,19.41-38.08-3.32A.78.78,0,0,1,215.3,224.21Zm32.75-8.32c0-2.51-4.73-2.88-6.33-1.39-2.11,1.83-5.32,3-5.09,6.25C239,227.53,247.9,220.78,248.05,215.89Z" />
                    <path class="cls-5"
                        d="M350.26,218.13c.35,14.73-17.87,26.47-28.41,14-6.93-8.83-28.87-37.41-2.71-32.79C328.48,201.75,349.86,206.33,350.26,218.13ZM329.09,213c-8.78.17-.93,13.49,4.18,9.28C335.7,219.16,332.58,213.5,329.09,213Z" />
                    <path class="cls-5"
                        d="M203.49,195.68c-.38-17.12,9.39-26.16,26.94-13.29,4.79,3.51,15.52,9.26,8.95,17.41-6.81,6.09-15.5,9.85-23.44,14.32C206.6,217.66,202.65,203.2,203.49,195.68ZM225.85,193c-1-8-9.21-3.88-7.25,2.5C220,199.41,225.9,196.53,225.85,193Z" />
                    <path class="cls-5"
                        d="M310,146c.37-33,50.71.75,28.8,11.54-6.8,3.34-18.89,11.68-24.28,2.72C311.85,155.72,310,151.69,310,146Zm14.86,4.46c5.07-1,2.32-7.66-2.12-6.83C317.84,144.33,320.78,150.89,324.9,150.43Z" />
                    <path class="cls-5"
                        d="M232,156.49c7.47-.26,35.28,13.13,31.69,18.42-3.12,4.6-13.44,10.34-18.77,11C232,188,209.79,157.26,232,156.49Zm11.68,16.69c5.3-1.26-.05-6.29-3.38-5.76-2-.1-3.33,2.4-1.64,3.73A7.29,7.29,0,0,0,243.71,173.18Z" />
                    <path class="cls-5"
                        d="M283.41,145.48c-4.46-33.58,29.8-33.12,23.08-.76-1.48,7.12-8.35,9.89-13.89,13.23C282,164.33,284.32,152.33,283.41,145.48Zm9.6-7.57c.74,9.27,6.62.92,4.41-3.23C294.9,131.79,292.94,135.08,293,137.91Z" />
                    <path class="cls-5"
                        d="M274.5,241.14c.91,23.88-11.34,23.55-26.78,10.12-6.19-9,10.65-21.89,16.89-27.25C273.68,220.48,274.44,235.4,274.5,241.14Zm-17,3.86c-.44,4,3.55,3.14,5.55,1.21,2.41-2.5,0-9.24-3.77-5.91A6.65,6.65,0,0,0,257.53,245Z" />
                    <path class="cls-5"
                        d="M291.86,184.12c-40.87-.76,8.41-41.75,18-18.85C312.3,177.86,303.78,184.34,291.86,184.12ZM295.68,170c-1.95-.48-3.53,1.55-3.93,3.18C295.19,179.52,302.06,169.79,295.68,170Z" />
                    <path class="cls-5"
                        d="M275.69,186.25c.16,5.42-8.42,18.14-14.63,18.1s-20.74-8.88-11.94-14.18C254.86,186.7,275.14,172.77,275.69,186.25ZM266.07,191c-1.29-3.3-7.32-.37-7.83,2.33C258.49,196.81,266.33,195.3,266.07,191Z" />
                    <path class="cls-5"
                        d="M266.52,210.62c.48-5.84,5.07-11.68,9.56-15.42,8.55-7,11.55,8.75,6.43,14.12C278.67,213.35,267,220.49,266.52,210.62Zm12.2-7.49c-.9-4-6.56,3.29-6.82,5.22C272.79,212.69,279.53,206,278.72,203.13Z" />
                    <path class="cls-5"
                        d="M298.46,186.2c13.75-.72,8.06,13.71-.67,14.2C287.65,200.25,279.37,187.2,298.46,186.2Zm-.06,5.35c-1.74-.06-4.33,1.12-3.53,3.25C296.81,198.47,304.09,191.93,298.4,191.55Z" />
                    <g class="cls-6">
                        <path class="cls-7"
                            d="M281.57,149.46c1.35,14.57-5.53,25.8-19.56,16-9.25-6.44-22.83-8.55-29.75-18-7.85-18.66,41.36-42.14,47-17.62C280.59,135.68,281.12,144.55,281.57,149.46Zm-23-2.57c4.37.58,8.11-4.61,4.36-7.44C256,135,248.18,145.72,258.55,146.89Z" />
                        <path class="cls-7"
                            d="M277.18,226.1a10.39,10.39,0,0,1,0-2.84c1-7,7.24-12.95,13.11-15.75,8.8-4.2,23.24,22.64,29.88,32a10.08,10.08,0,0,1,1.91,5.49c.4,10-14.18,14.83-22.85,15.1-6.79.21-16.65.08-18.09-8.51C280,243.05,278.35,234.59,277.18,226.1Zm19.24,6.07-.59,0c-6.66-.28-5.73,8.84-1,11.27C304,248,305.84,232,296.42,232.17Z" />
                        <path class="cls-7"
                            d="M358.68,181.18c1,33.81-18.68,19.45-40.9,14.59-12.56-2.74-3.65-27,5.93-29.18C343.19,159.86,357.86,154.1,358.68,181.18Zm-21.92,4.63c8.62-.33,2.68-12.08-3.42-8.19C328.85,180,332.94,186,336.76,185.81Z" />
                        <path class="cls-7"
                            d="M215.3,224.21c1.58-10.16,12.31-15.11,20.95-18.86l0,0c7.13-4.13,15.2,0,21.88,3.14l.06,0c8.61,5,0,13.93-4.83,19.38-13.63,15.36-31.65,19.41-38.08-3.32A.78.78,0,0,1,215.3,224.21Zm32.75-8.32c0-2.51-4.73-2.88-6.33-1.39-2.11,1.83-5.32,3-5.09,6.25C239,227.53,247.9,220.78,248.05,215.89Z" />
                        <path class="cls-7"
                            d="M350.26,218.13c.35,14.73-17.87,26.47-28.41,14-6.93-8.83-28.87-37.41-2.71-32.79C328.48,201.75,349.86,206.33,350.26,218.13ZM329.09,213c-8.78.17-.93,13.49,4.18,9.28C335.7,219.16,332.58,213.5,329.09,213Z" />
                        <path class="cls-7"
                            d="M203.49,195.68c-.38-17.12,9.39-26.16,26.94-13.29,4.79,3.51,15.52,9.26,8.95,17.41-6.81,6.09-15.5,9.85-23.44,14.32C206.6,217.66,202.65,203.2,203.49,195.68ZM225.85,193c-1-8-9.21-3.88-7.25,2.5C220,199.41,225.9,196.53,225.85,193Z" />
                        <path class="cls-7"
                            d="M310,146c.37-33,50.71.75,28.8,11.54-6.8,3.34-18.89,11.68-24.28,2.72C311.85,155.72,310,151.69,310,146Zm14.86,4.46c5.07-1,2.32-7.66-2.12-6.83C317.84,144.33,320.78,150.89,324.9,150.43Z" />
                        <path class="cls-7"
                            d="M232,156.49c7.47-.26,35.28,13.13,31.69,18.42-3.12,4.6-13.44,10.34-18.77,11C232,188,209.79,157.26,232,156.49Zm11.68,16.69c5.3-1.26-.05-6.29-3.38-5.76-2-.1-3.33,2.4-1.64,3.73A7.29,7.29,0,0,0,243.71,173.18Z" />
                        <path class="cls-7"
                            d="M283.41,145.48c-4.46-33.58,29.8-33.12,23.08-.76-1.48,7.12-8.35,9.89-13.89,13.23C282,164.33,284.32,152.33,283.41,145.48Zm9.6-7.57c.74,9.27,6.62.92,4.41-3.23C294.9,131.79,292.94,135.08,293,137.91Z" />
                        <path class="cls-7"
                            d="M274.5,241.14c.91,23.88-11.34,23.55-26.78,10.12-6.19-9,10.65-21.89,16.89-27.25C273.68,220.48,274.44,235.4,274.5,241.14Zm-17,3.86c-.44,4,3.55,3.14,5.55,1.21,2.41-2.5,0-9.24-3.77-5.91A6.65,6.65,0,0,0,257.53,245Z" />
                        <path class="cls-7"
                            d="M291.86,184.12c-40.87-.76,8.41-41.75,18-18.85C312.3,177.86,303.78,184.34,291.86,184.12ZM295.68,170c-1.95-.48-3.53,1.55-3.93,3.18C295.19,179.52,302.06,169.79,295.68,170Z" />
                        <path class="cls-7"
                            d="M275.69,186.25c.16,5.42-8.42,18.14-14.63,18.1s-20.74-8.88-11.94-14.18C254.86,186.7,275.14,172.77,275.69,186.25ZM266.07,191c-1.29-3.3-7.32-.37-7.83,2.33C258.49,196.81,266.33,195.3,266.07,191Z" />
                        <path class="cls-7"
                            d="M266.52,210.62c.48-5.84,5.07-11.68,9.56-15.42,8.55-7,11.55,8.75,6.43,14.12C278.67,213.35,267,220.49,266.52,210.62Zm12.2-7.49c-.9-4-6.56,3.29-6.82,5.22C272.79,212.69,279.53,206,278.72,203.13Z" />
                        <path class="cls-7"
                            d="M298.46,186.2c13.75-.72,8.06,13.71-.67,14.2C287.65,200.25,279.37,187.2,298.46,186.2Zm-.06,5.35c-1.74-.06-4.33,1.12-3.53,3.25C296.81,198.47,304.09,191.93,298.4,191.55Z" />
                    </g>
                </g>
            </g>
        </g>
    </g>
</svg>